<?xml version="1.0" encoding="UTF-8"?>
<svg id="_Слой_1" data-name="Слой 1" xmlns="http://www.w3.org/2000/svg" viewBox="0 0 558.47 148.92">
  <defs>
    <style>
      .cls-1 {
        fill: #fff;
      }

      .cls-2 {
        fill: #1d1d1b;
      }
    </style>
  </defs>
  <g>
    <path class="cls-2" d="m189.19,112.72h-31.85v-44.58h31.53v7.32h-23.38v11.15h22.23v7.32h-22.23v11.46h23.69v7.32Z"/>
    <path class="cls-2" d="m202.94,112.72h-9.36l11.66-16.69-11.59-16.56h9.36l7.13,10.32,7.2-10.32h9.3l-11.59,16.56,11.72,16.69h-9.36l-7.26-10.38-7.2,10.38Z"/>
    <path class="cls-2" d="m240.33,124.95h-7.96v-45.48h5.1l1.4,4.97c3.06-3.78,7.2-5.67,12.42-5.67,4.42,0,8.07,1.67,10.96,5,2.89,3.33,4.33,7.44,4.33,12.32s-1.44,8.99-4.33,12.32c-2.89,3.33-6.54,5-10.96,5-2.51,0-4.7-.53-6.59-1.59-1.89-1.06-3.34-2.31-4.36-3.76v16.88Zm8.98-18.79c2.72,0,4.92-.96,6.62-2.87,1.7-1.91,2.55-4.31,2.55-7.2s-.85-5.34-2.55-7.23c-1.7-1.89-3.91-2.83-6.62-2.83s-4.8.97-6.5,2.9c-1.7,1.93-2.55,4.32-2.55,7.17s.85,5.23,2.55,7.17c1.7,1.93,3.86,2.9,6.5,2.9Z"/>
    <path class="cls-2" d="m282.05,112.72h-7.96v-47.96h7.96v47.96Z"/>
    <path class="cls-2" d="m294.5,108.42c-3.29-3.33-4.94-7.44-4.94-12.32s1.65-8.99,4.94-12.32c3.29-3.33,7.4-5,12.32-5s9.03,1.67,12.32,5c3.29,3.33,4.94,7.44,4.94,12.32s-1.65,8.99-4.94,12.32c-3.29,3.33-7.4,5-12.32,5s-9.03-1.67-12.32-5Zm5.7-5.13c1.74,1.91,3.95,2.87,6.62,2.87s4.87-.96,6.59-2.87c1.72-1.91,2.58-4.31,2.58-7.2s-.86-5.34-2.58-7.23c-1.72-1.89-3.92-2.83-6.59-2.83s-4.88.95-6.62,2.83c-1.74,1.89-2.61,4.3-2.61,7.23s.87,5.29,2.61,7.2Z"/>
    <path class="cls-2" d="m339.56,112.72h-7.96v-33.25h5.1l1.91,5.86c.55-.98,1.11-1.8,1.69-2.48.57-.68,1.36-1.38,2.36-2.1,1-.72,2.27-1.25,3.82-1.59,1.55-.34,3.34-.45,5.38-.32l-1.08,8.47c-3.99-.25-6.86.48-8.6,2.2-1.74,1.72-2.61,4.07-2.61,7.04v16.18Z"/>
    <path class="cls-2" d="m387.65,99.16h-24.33c.47,2.34,1.51,4.14,3.12,5.41,1.61,1.27,3.67,1.91,6.18,1.91,1.83,0,3.4-.22,4.71-.67,1.32-.45,2.84-1.26,4.59-2.45l3.69,5.35c-2.04,1.7-4.08,2.91-6.11,3.63-2.04.72-4.42,1.08-7.13,1.08-4.97,0-9.08-1.66-12.32-4.97-3.25-3.31-4.87-7.43-4.87-12.36s1.63-8.99,4.9-12.32c3.27-3.33,7.26-5,11.97-5s8.76,1.66,11.5,4.97,4.11,7.47,4.11,12.48v2.93Zm-24.39-5.73h16.56c-.21-2.21-.97-4.07-2.26-5.57-1.3-1.51-3.11-2.26-5.45-2.26s-4.24.69-5.83,2.07c-1.59,1.38-2.6,3.3-3.03,5.76Z"/>
    <path class="cls-2" d="m416.44,112.72h-8.15v-44.58h8.15l14.65,23.88h.06l14.71-23.88h8.09v44.58h-8.15v-29.55h-.06l-13.82,22.74h-1.59l-13.82-22.74h-.06v29.55Z"/>
    <path class="cls-2" d="m485.93,112.72l-1.4-4.4c-1.91,3.4-5.41,5.1-10.51,5.1-3.35,0-6.18-.97-8.47-2.9-2.29-1.93-3.44-4.58-3.44-7.93s1.23-5.77,3.69-7.52c2.46-1.74,5.65-2.61,9.55-2.61,2.89,0,5.75.38,8.6,1.15,0-3.23-.48-5.33-1.43-6.31-.96-.98-3.03-1.47-6.21-1.47-3.82,0-7.18.45-10.06,1.34l-1.72-6.82c1.02-.34,2.86-.69,5.51-1.05,2.65-.36,5.21-.54,7.67-.54,3.06,0,5.53.3,7.42.89,1.89.6,3.32,1.59,4.3,2.99.98,1.4,1.63,3,1.97,4.81.34,1.81.51,4.17.51,7.1v18.15h-5.99Zm-1.78-13.12v-.32c-2.51-.68-5.1-1.02-7.77-1.02-4.12,0-6.18,1.46-6.18,4.39,0,1.36.51,2.42,1.53,3.18,1.02.76,2.4,1.15,4.14,1.15,2.84,0,4.94-.69,6.27-2.07,1.34-1.38,2.01-3.15,2.01-5.32Z"/>
    <path class="cls-2" d="m519.05,104.76l2.61,6.37c-2.29,1.53-5.01,2.29-8.15,2.29-3.57,0-6.33-.99-8.28-2.96-1.95-1.97-2.93-4.96-2.93-8.95v-14.78h-4.2v-7.13h4.52v-7.2h7.64v7.2h10.19v7.13h-10.19v14.78c0,1.74.29,2.95.86,3.63.57.68,1.5,1.02,2.77,1.02,1.53,0,3.25-.47,5.16-1.4Z"/>
    <path class="cls-2" d="m558.47,99.16h-24.33c.47,2.34,1.51,4.14,3.12,5.41,1.61,1.27,3.67,1.91,6.18,1.91,1.83,0,3.4-.22,4.71-.67,1.32-.45,2.84-1.26,4.59-2.45l3.69,5.35c-2.04,1.7-4.08,2.91-6.11,3.63-2.04.72-4.42,1.08-7.13,1.08-4.97,0-9.08-1.66-12.32-4.97-3.25-3.31-4.87-7.43-4.87-12.36s1.63-8.99,4.9-12.32c3.27-3.33,7.26-5,11.97-5s8.76,1.66,11.5,4.97,4.11,7.47,4.11,12.48v2.93Zm-24.39-5.73h16.56c-.21-2.21-.97-4.07-2.26-5.57-1.3-1.51-3.11-2.26-5.45-2.26s-4.24.69-5.83,2.07c-1.59,1.38-2.6,3.3-3.03,5.76Z"/>
  </g>
  <path class="cls-2" d="m134,102.31v-55.71c0-6.7-3.57-12.89-9.38-16.24L76.37,2.51c-5.8-3.35-12.95-3.35-18.75,0L9.38,30.37C3.57,33.72,0,39.91,0,46.61v55.71c0,6.7,3.57,12.89,9.38,16.24l48.24,27.85c5.8,3.35,12.95,3.35,18.75,0l48.24-27.85c5.8-3.35,9.38-9.54,9.38-16.24Z"/>
  <path class="cls-1" d="m94.98,67.09c-1.1-14.5-13.21-25.92-27.99-25.92s-26.88,11.42-27.99,25.92h-.09c0,9.12,2.36,18.08,6.84,26.01l17,30.07c1.86,3.29,6.6,3.29,8.46,0l17-30.07c4.49-7.94,6.84-16.9,6.84-26.01h0s-.09,0-.09,0Zm-28.18,14.34c-7.04,0-12.74-5.71-12.74-12.74s5.71-12.74,12.74-12.74,12.74,5.71,12.74,12.74-5.71,12.74-12.74,12.74Z"/>
</svg>